<?xml version="1.0" encoding="UTF-8"?>
<svg id="Capa_2" data-name="Capa 2" xmlns="http://www.w3.org/2000/svg" viewBox="0 0 130.36 181.27">
  <defs>
    <style>
      .cls-1 {
        fill: #fff;
      }
    </style>
  </defs>
  <g id="Capa_1-2" data-name="Capa 1">
    <path class="cls-1" d="m36.29,181.27c-4.16,0-7.95-.37-11.28-1.12-3.33-.75-6.44-1.84-9.24-3.25-2.78-1.41-5.38-3.14-7.72-5.15-2.29-1.96-4.52-4.23-6.63-6.76l-1.43-1.71,1.91-1.92,41.69-41.54c-1.48-.49-2.92-.96-4.37-1.39-3.18-.96-6.3-2.01-9.3-3.14-3.08-1.16-6.02-2.5-8.72-3.99-2.84-1.56-5.36-3.48-7.49-5.7-2.18-2.27-3.93-5-5.19-8.13-1.27-3.13-1.92-6.83-1.92-11.03s.77-8.04,2.3-11.79c1.52-3.76,3.78-7.12,6.72-9.99L70.88,9.43c2.95-2.88,6.59-5.2,10.85-6.89,4.25-1.69,9.15-2.54,14.56-2.54,6.05,0,11.51,1,16.22,2.98,4.72,1.98,9.19,5.16,13.29,9.44l1.66,1.73-1.73,1.82c-.2.44-.64.88-1.21,1.18l-36.6,36.57c3.22,1.18,6.54,2.34,9.9,3.45,3.81,1.26,7.66,2.62,11.44,4.05,3.93,1.49,7.45,3.41,10.5,5.71,3.13,2.37,5.7,5.32,7.64,8.79,1.97,3.54,2.98,7.97,2.98,13.16s-.88,10-2.62,14.46c-1.85,4.76-3.4,7.2-6.61,10.45l-56.3,56.65-.3.28-.86.81c-3.11,2.85-6.83,5.15-11.08,6.85-4.79,1.91-10.27,2.88-16.3,2.88m-26.93-17.8c.35.35.72.72,1.14,1.12,1.06,1.03,2.36,2.16,3.86,3.34,1.44,1.13,3.22,2.22,5.32,3.23,2.09,1.02,4.53,1.87,7.24,2.52,2.7.66,5.85.99,9.36.99,5.12,0,9.73-.82,13.66-2.44,2.54-1.04,4.86-2.34,6.91-3.86l5.83-5.84c1.43-1.94,2.6-4.08,3.5-6.36,1.43-3.65,2.16-7.59,2.16-11.71,0-3.38-.52-6.29-1.53-8.69-1.03-2.4-2.43-4.49-4.17-6.2-1.8-1.77-3.92-3.31-6.32-4.57-1.88-.99-3.91-1.93-6.04-2.78l-40.93,41.22Zm24.75-101.02c-1.82.35-3.52.83-5.08,1.45-3.43,1.37-6.34,3.2-8.63,5.44-2.28,2.23-4.04,4.86-5.23,7.8-1.2,2.96-1.81,6.09-1.81,9.31,0,4.12.78,7.54,2.33,10.19,1.6,2.73,3.72,5.08,6.3,6.95,2.68,1.95,5.82,3.6,9.31,4.89,3.63,1.34,7.42,2.67,11.25,3.94,3.81,1.26,7.66,2.62,11.43,4.05,3.93,1.49,7.46,3.41,10.5,5.71,3.13,2.36,5.71,5.32,7.64,8.8,1.97,3.54,2.97,7.96,2.97,13.16,0,2.21-.16,4.38-.49,6.48l16.52-16.54c.81-1.46,1.59-3.13,2.41-5.24,1.44-3.65,2.16-7.59,2.16-11.72,0-3.37-.52-6.29-1.54-8.68-1.02-2.39-2.43-4.48-4.17-6.2-1.8-1.77-3.92-3.31-6.31-4.56-2.52-1.33-5.26-2.54-8.12-3.6-2.93-1.08-5.96-2.08-8.99-3-3.18-.95-6.3-2.01-9.3-3.14-3.07-1.16-6.01-2.5-8.72-3.99-2.83-1.56-5.35-3.48-7.48-5.7-2.18-2.27-3.93-5-5.2-8.13-.91-2.26-1.51-4.83-1.76-7.69m6.72-.62c.28,2.93,1.02,5.43,2.2,7.47,1.6,2.74,3.73,5.08,6.3,6.95,2.68,1.95,5.82,3.6,9.31,4.89,3.64,1.35,7.43,2.68,11.25,3.95,3.84,1.27,7.69,2.64,11.43,4.05,3.92,1.49,7.45,3.41,10.5,5.71,3.13,2.37,5.71,5.33,7.64,8.8,1.97,3.54,2.97,7.96,2.97,13.16,0,2.2-.16,4.36-.49,6.46l16.16-16.17c1.35-1.87,2.48-3.94,3.34-6.15,1.43-3.64,2.16-7.58,2.16-11.71,0-3.38-.52-6.3-1.54-8.69-1.02-2.4-2.43-4.48-4.16-6.19-1.8-1.77-3.93-3.31-6.32-4.57-2.52-1.33-5.26-2.54-8.12-3.59-2.93-1.08-5.95-2.08-8.99-3-3.18-.96-6.3-2.01-9.3-3.14-.83-.31-1.71-.67-2.57-1.03l-12.16,12.22c-.76,1.61-3.62,2.35-5.94.17-.61-.57-1.33-1.23-2.22-2.04-.81-.74-1.87-1.58-3.13-2.5-1.18-.85-2.64-1.66-4.33-2.4-1.7-.75-3.72-1.38-5.97-1.88-2.28-.51-5.06-.76-8.04-.75m.19-6.57c6.05,0,11.51,1,16.22,2.98,3.58,1.5,7.03,3.71,10.28,6.57L117.74,14.25c-.06-.05-.12-.1-.17-.16-.81-.73-1.87-1.57-3.13-2.49-1.18-.86-2.64-1.66-4.33-2.4-1.71-.76-3.72-1.39-5.98-1.89-2.24-.49-4.88-.74-7.85-.74-4.51,0-8.55.69-11.99,2.06-3.43,1.37-6.33,3.2-8.61,5.43l-41.72,41.72c2.24-.36,4.6-.54,7.07-.54"/>
  </g>
</svg>